<svg width="128" height="128" viewBox="0 0 128 128" fill="none" xmlns="http://www.w3.org/2000/svg">
<g clip-path="url(#clip0_57_883)">
<rect width="128" height="128" fill="#F6F6F4"/>
<rect width="21.3333" height="21.3333" fill="#9D45FA"/>
<rect x="21.333" width="21.3333" height="21.3333" fill="#A34FFA"/>
<rect x="42.667" width="21.3333" height="21.3333" fill="#A042FA"/>
<rect x="64" width="21.3333" height="21.3333" fill="#A83FF8"/>
<rect x="85.333" width="21.3333" height="21.3333" fill="#914AEA"/>
<rect x="106.667" width="21.3333" height="21.3333" fill="#9E51C2"/>
<rect y="21.334" width="21.3333" height="21.3333" fill="#8954FB"/>
<rect x="21.333" y="21.334" width="21.3333" height="21.3333" fill="#834CFA"/>
<rect x="42.667" y="21.334" width="21.3333" height="21.3333" fill="#864BFA"/>
<rect x="64" y="21.334" width="21.3333" height="21.3333" fill="#8047F7"/>
<rect x="85.333" y="21.334" width="21.3333" height="21.3333" fill="#9D4BD0"/>
<rect x="106.667" y="21.334" width="21.3333" height="21.3333" fill="#BB569A"/>
<rect y="42.666" width="21.3333" height="21.3333" fill="#535AFA"/>
<rect x="21.333" y="42.666" width="21.3333" height="21.3333" fill="#545AFA"/>
<rect x="42.667" y="42.666" width="21.3333" height="21.3333" fill="#545AFA"/>
<rect x="64" y="42.666" width="21.3333" height="21.3333" fill="#5959FA"/>
<rect x="85.333" y="42.666" width="21.3333" height="21.3333" fill="#675DEB"/>
<rect x="106.667" y="42.666" width="21.3333" height="21.3333" fill="#8469B5"/>
<rect y="64" width="21.3333" height="21.3333" fill="#007CFA"/>
<rect x="21.333" y="64" width="21.3333" height="21.3333" fill="#007BFA"/>
<rect x="42.667" y="64" width="21.3333" height="21.3333" fill="#0078FA"/>
<rect x="64" y="64" width="21.3333" height="21.3333" fill="#1F71FA"/>
<rect x="85.333" y="64" width="21.3333" height="21.3333" fill="#4979D4"/>
<rect x="106.667" y="64" width="21.3333" height="21.3333" fill="#0084FA"/>
<rect x="21.333" y="85.334" width="21.3333" height="21.3333" fill="#0087FA"/>
<rect x="42.667" y="85.334" width="21.3333" height="21.3333" fill="#008BF0"/>
<rect x="64" y="85.334" width="21.3333" height="21.3333" fill="#008EE3"/>
<rect x="85.333" y="85.334" width="21.3333" height="21.3333" fill="#008DE4"/>
<rect x="106.667" y="85.334" width="21.3333" height="21.3333" fill="#018AE4"/>
<rect y="106.666" width="21.3333" height="21.3333" fill="#2468FA"/>
<rect x="21.333" y="106.666" width="21.3333" height="21.3333" fill="#0081FA"/>
<rect x="42.667" y="106.666" width="21.3333" height="21.3333" fill="#008EEF"/>
<rect x="64" y="106.666" width="21.3333" height="21.3333" fill="#609D9C"/>
<rect x="85.333" y="106.666" width="21.3333" height="21.3333" fill="#91AC71"/>
<rect x="106.667" y="106.666" width="21.3333" height="21.3333" fill="#6CAC89"/>
<rect y="85.334" width="21.3333" height="21.3333" fill="#1976C9"/>
<path d="M38.787 56.778V61.0491H26.1338V56.778H38.787ZM29.0302 77.2793V55.2964C29.0302 53.8104 29.3194 52.578 29.8977 51.5993C30.485 50.6205 31.2859 49.8864 32.3002 49.397C33.3146 48.9076 34.4669 48.6629 35.7572 48.6629C36.6292 48.6629 37.4256 48.7296 38.1463 48.8631C38.876 48.9965 39.4188 49.1167 39.7747 49.2234L38.7603 53.4946C38.5378 53.4234 38.262 53.3566 37.9328 53.2943C37.6124 53.2321 37.2832 53.2009 36.9451 53.2009C36.1086 53.2009 35.5258 53.3967 35.1966 53.7882C34.8674 54.1708 34.7027 54.7092 34.7027 55.4032V77.2793H29.0302ZM39.6296 77.2793V56.778H45.142V60.355H45.3556C45.7293 59.0826 46.3566 58.1216 47.2375 57.472C48.1184 56.8136 49.1328 56.4843 50.2807 56.4843C50.5654 56.4843 50.8724 56.5021 51.2016 56.5377C51.5309 56.5733 51.8201 56.6223 52.0692 56.6845V61.7298C51.8023 61.6497 51.433 61.5785 50.9614 61.5162C50.4898 61.4539 50.0582 61.4228 49.6667 61.4228C48.8303 61.4228 48.0828 61.6052 47.4244 61.97C46.7748 62.326 46.2587 62.8243 45.8761 63.4649C45.5024 64.1056 45.3155 64.8441 45.3155 65.6806V77.2793H39.6296ZM57.6367 77.6664C56.3287 77.6664 55.163 77.4395 54.1398 76.9857C53.1165 76.523 52.3067 75.8422 51.7106 74.9435C51.1233 74.0359 50.8296 72.9059 50.8296 71.5533C50.8296 70.4144 51.0388 69.4578 51.457 68.6837C51.8752 67.9096 52.4447 67.2867 53.1654 66.8151C53.8862 66.3435 54.7048 65.9876 55.6213 65.7473C56.5467 65.5071 57.5166 65.338 58.531 65.2401C59.7233 65.1155 60.6843 64.9999 61.414 64.8931C62.1436 64.7774 62.6731 64.6083 63.0023 64.3859C63.3315 64.1634 63.4962 63.8342 63.4962 63.3982V63.3181C63.4962 62.4728 63.2292 61.8188 62.6953 61.3561C62.1703 60.8934 61.4229 60.662 60.453 60.662C59.4297 60.662 58.6155 60.8889 58.0105 61.3427C57.4054 61.7876 57.005 62.3482 56.8092 63.0245L51.5504 62.5974C51.8173 61.3516 52.3423 60.2749 53.1254 59.3673C53.9084 58.4508 54.9183 57.7479 56.1552 57.2585C57.4009 56.7602 58.8424 56.511 60.4797 56.511C61.6186 56.511 62.7087 56.6445 63.7498 56.9114C64.7997 57.1784 65.7296 57.5922 66.5393 58.1527C67.358 58.7133 68.0031 59.4341 68.4747 60.315C68.9463 61.187 69.1821 62.2325 69.1821 63.4516V77.2793H63.7898V74.4363H63.6296C63.3004 75.077 62.8599 75.642 62.3083 76.1314C61.7566 76.6119 61.0937 76.9901 60.3195 77.2659C59.5454 77.5329 58.6511 77.6664 57.6367 77.6664ZM59.2651 73.7423C60.1015 73.7423 60.8401 73.5777 61.4807 73.2484C62.1214 72.9103 62.6241 72.4565 62.989 71.887C63.3538 71.3175 63.5362 70.6724 63.5362 69.9517V67.7761C63.3582 67.8918 63.1135 67.9985 62.8021 68.0964C62.4996 68.1854 62.157 68.2699 61.7744 68.35C61.3917 68.4212 61.0091 68.4879 60.6265 68.5502C60.2439 68.6036 59.8969 68.6525 59.5854 68.697C58.9181 68.7949 58.3352 68.9506 57.8369 69.1642C57.3386 69.3777 56.9516 69.6669 56.6757 70.0318C56.3999 70.3877 56.262 70.8326 56.262 71.3665C56.262 72.1406 56.5423 72.7323 57.1028 73.1417C57.6723 73.5421 58.3931 73.7423 59.2651 73.7423ZM76.1143 71.3798L76.1277 64.5594H76.9552L83.5221 56.778H90.0488L81.2263 67.082H79.8783L76.1143 71.3798ZM70.9623 77.2793V49.9442H76.6482V77.2793H70.9623ZM83.7756 77.2793L77.7427 68.35L81.5333 64.3325L90.4359 77.2793H83.7756ZM101.112 56.778V61.0491H88.7659V56.778H101.112ZM91.5688 51.8662H97.2547V70.9794C97.2547 71.5044 97.3348 71.9137 97.495 72.2074C97.6552 72.4921 97.8776 72.6923 98.1623 72.808C98.456 72.9237 98.7941 72.9815 99.1767 72.9815C99.4437 72.9815 99.7106 72.9592 99.9776 72.9148C100.245 72.8614 100.449 72.8213 100.592 72.7946L101.486 77.0257C101.201 77.1147 100.801 77.217 100.285 77.3327C99.7685 77.4573 99.1411 77.5329 98.4026 77.5596C97.0323 77.613 95.831 77.4306 94.7988 77.0124C93.7756 76.5941 92.9792 75.9446 92.4097 75.0637C91.8402 74.1827 91.5599 73.0705 91.5688 71.7269V51.8662Z" fill="white"/>
</g>
<defs>
<clipPath id="clip0_57_883">
<rect width="128" height="128" fill="white"/>
</clipPath>
</defs>
</svg>
