<svg preserveAspectRatio="none" width="100%" height="100%" overflow="visible" style="display: block;" viewBox="0 0 77.8343 29.959" fill="none" xmlns="http://www.w3.org/2000/svg">
<g id="frakt">
<path id="Vector" d="M77.4483 8.38185V12.7937H64.6954V8.38185H77.4483ZM67.5906 3.30829H73.4638V23.0511C73.4638 23.5934 73.5466 24.0162 73.712 24.3195C73.8775 24.6136 74.1072 24.8204 74.4014 24.9399C74.7047 25.0594 75.0539 25.1191 75.4492 25.1191C75.7249 25.1191 76.0006 25.0961 76.2764 25.0502C76.5521 24.995 76.7635 24.9537 76.9106 24.9261L77.8343 29.2965C77.5402 29.3884 77.1266 29.4941 76.5935 29.6136C76.0604 29.7423 75.4124 29.8204 74.6495 29.848C73.2341 29.9032 71.9932 29.7147 70.9271 29.2827C69.8701 28.8508 69.0475 28.1798 68.4592 27.2699C67.871 26.3599 67.5815 25.211 67.5906 23.8231V3.30829Z" fill="var(--fill-0, #FF8599)"/>
<path id="Vector_2" d="M51.6265 23.465L51.6403 16.4199H52.4951L59.2783 8.38219H66.02L56.9069 19.0257H55.5144L51.6265 23.465ZM46.3048 29.5588V1.32332H52.178V29.5588H46.3048ZM59.5402 29.5588L53.3085 20.3354L57.224 16.1856L66.4199 29.5588H59.5402Z" fill="var(--fill-0, #FF8599)"/>
<path id="Vector_3" d="M32.5406 29.959C31.1895 29.959 29.9855 29.7247 28.9285 29.2559C27.8715 28.778 27.0351 28.0748 26.4193 27.1465C25.8126 26.209 25.5093 25.0417 25.5093 23.6447C25.5093 22.4682 25.7253 21.4801 26.1573 20.6805C26.5893 19.8808 27.1775 19.2375 27.922 18.7503C28.6665 18.2632 29.5121 17.8955 30.4588 17.6474C31.4147 17.3992 32.4165 17.2246 33.4644 17.1235C34.696 16.9948 35.6886 16.8753 36.4423 16.765C37.196 16.6455 37.7429 16.4709 38.083 16.2411C38.423 16.0113 38.5931 15.6713 38.5931 15.2209V15.1382C38.5931 14.265 38.3173 13.5894 37.7659 13.1115C37.2236 12.6335 36.4515 12.3946 35.4497 12.3946C34.3927 12.3946 33.5517 12.629 32.9267 13.0977C32.3017 13.5573 31.8881 14.1363 31.6858 14.8349L26.2538 14.3937C26.5296 13.1069 27.0718 11.9948 27.8807 11.0573C28.6895 10.1106 29.7327 9.38444 31.0103 8.87892C32.2971 8.36422 33.786 8.10686 35.4772 8.10686C36.6537 8.10686 37.7796 8.24473 38.855 8.52047C39.9396 8.7962 40.9001 9.2236 41.7365 9.80264C42.5821 10.3817 43.2484 11.1262 43.7356 12.0361C44.2227 12.9369 44.4663 14.0168 44.4663 15.276V29.5592H38.8964V26.6226H38.7309C38.3909 27.2844 37.9359 27.868 37.366 28.3736C36.7962 28.8699 36.1114 29.2605 35.3118 29.5454C34.5122 29.8212 33.5884 29.959 32.5406 29.959ZM34.2226 25.9057C35.0866 25.9057 35.8495 25.7357 36.5112 25.3956C37.173 25.0463 37.6923 24.5776 38.0692 23.9893C38.446 23.4011 38.6344 22.7347 38.6344 21.9902V19.743C38.4506 19.8625 38.1978 19.9728 37.8761 20.0739C37.5636 20.1658 37.2098 20.2531 36.8146 20.3358C36.4193 20.4093 36.0241 20.4783 35.6289 20.5426C35.2337 20.5978 34.8752 20.6483 34.5535 20.6943C33.8642 20.7954 33.2621 20.9562 32.7474 21.1768C32.2327 21.3974 31.8329 21.6961 31.548 22.073C31.263 22.4406 31.1206 22.9002 31.1206 23.4516C31.1206 24.2513 31.4101 24.8625 31.9892 25.2853C32.5774 25.6989 33.3219 25.9057 34.2226 25.9057Z" fill="var(--fill-0, #FF8599)"/>
<path id="Vector_4" d="M13.9409 29.5594V8.38276H19.6349V12.0776H19.8555C20.2415 10.7633 20.8895 9.77064 21.7994 9.09968C22.7094 8.41953 23.7572 8.07945 24.9428 8.07945C25.2369 8.07945 25.554 8.09783 25.8941 8.1346C26.2342 8.17136 26.5329 8.22191 26.7903 8.28625V13.4977C26.5145 13.415 26.1331 13.3414 25.646 13.2771C25.1588 13.2128 24.7131 13.1806 24.3086 13.1806C23.4447 13.1806 22.6726 13.369 21.9924 13.7459C21.3215 14.1135 20.7884 14.6282 20.3932 15.29C20.0071 15.9517 19.8141 16.7146 19.8141 17.5786V29.5594H13.9409Z" fill="var(--fill-0, #FF8599)"/>
<path id="Vector_5" d="M13.0699 8.38242V12.7942H0V8.38242H13.0699ZM2.99175 29.559V6.85207C2.99175 5.31714 3.29047 4.04415 3.8879 3.03311C4.49452 2.02207 5.32173 1.2638 6.36953 0.758278C7.41733 0.252759 8.6076 0 9.94033 0C10.8411 0 11.6637 0.0689352 12.4082 0.206805C13.1619 0.344673 13.7225 0.468755 14.0902 0.57905L13.0424 4.99085C12.8126 4.91732 12.5277 4.84838 12.1876 4.78404C11.8567 4.71971 11.5166 4.68754 11.1674 4.68754C10.3034 4.68754 9.70136 4.88974 9.36128 5.29416C9.02121 5.68938 8.85117 6.24545 8.85117 6.96237V29.559H2.99175Z" fill="var(--fill-0, #FF8599)"/>
</g>
</svg>
